<?xml version="1.0" encoding="UTF-8" standalone="no"?>
<svg
   xmlns:dc="http://purl.org/dc/elements/1.1/"
   xmlns:cc="http://creativecommons.org/ns#"
   xmlns:rdf="http://www.w3.org/1999/02/22-rdf-syntax-ns#"
   xmlns:svg="http://www.w3.org/2000/svg"
   xmlns="http://www.w3.org/2000/svg"
   xmlns:sodipodi="http://sodipodi.sourceforge.net/DTD/sodipodi-0.dtd"
   xmlns:inkscape="http://www.inkscape.org/namespaces/inkscape"
   sodipodi:docname="plume.svg"
   inkscape:version="1.0 (4035a4f, 2020-05-01)"
   id="svg8"
   version="1.1"
   viewBox="0 0 240 240"
   height="240mm"
   width="240mm">
  <defs
     id="defs2" />
  <sodipodi:namedview
     inkscape:window-maximized="0"
     inkscape:window-y="23"
     inkscape:window-x="0"
     inkscape:window-height="943"
     inkscape:window-width="1252"
     showgrid="false"
     inkscape:document-rotation="0"
     inkscape:current-layer="layer2"
     inkscape:document-units="mm"
     inkscape:cy="561.25984"
     inkscape:cx="66.850394"
     inkscape:zoom="0.35"
     inkscape:pageshadow="2"
     inkscape:pageopacity="0"
     borderopacity="1.0"
     bordercolor="#666666"
     pagecolor="#ffffff"
     id="base" />
  <metadata
     id="metadata5">
    <rdf:RDF>
      <cc:Work
         rdf:about="">
        <dc:format>image/svg+xml</dc:format>
        <dc:type
           rdf:resource="http://purl.org/dc/dcmitype/StillImage" />
        <dc:title></dc:title>
      </cc:Work>
    </rdf:RDF>
  </metadata>
  <g
     style="display:inline"
     inkscape:label="circle"
     id="layer2"
     inkscape:groupmode="layer">
    <ellipse
       ry="120.0"
       rx="120.0"
       cy="120.0"
       cx="120.0"
       id="path37"
       style="fill:#ffff00;fill-rule:evenodd;stroke-width:0.264583" />
    <!--<path
       transform="scale(0.26458333)"
       id="path68"
       d="M 405.42182,905.27973 C 321.11505,893.30016 260.70412,871.31441 199.57269,830.36361 98.134614,762.41221 28.703151,656.08944 5.1831906,532.68841 -1.9453992,495.28719 -1.9600914,416.64916 5.154098,376.97413 28.428057,247.17788 106.10407,134.24037 219.41562,65.44728 336.20034,-5.4544232 485.04465,-17.829169 613.47277,32.68582 c 143.81448,56.566954 246.33342,179.20864 279.43911,334.28831 8.72209,40.85768 9.45411,124.32 1.46594,167.14286 -22.67974,121.5812 -93.16131,229.05074 -194.67028,296.83105 -48.17955,32.17083 -113.8218,59.00915 -168.57143,68.92166 -24.46303,4.42909 -107.47654,8.00151 -125.71429,5.41003 z"
       style="fill:#ffffff;stroke-width:2.85714" />-->
  </g>
  <g
     style="display:inline"
     id="layer1"
     inkscape:groupmode="layer"
     inkscape:label="plume">
    <g
       transform="translate(33.261905,-10.583333)"
       id="g34">
      <path
         style="fill:#000000;fill-opacity:1;fill-rule:nonzero;stroke:none;stroke-width:0.264583"
         id="path10"
         d="m 25.401814,220.58583 c 0.379818,-8.26101 4.987288,-17.79411 8.754605,-24.71566 8.98067,-16.49988 14.571395,-23.74188 25.566029,-39.91178 20.977695,-28.46142 10.607574,-14.73407 31.059633,-41.22034 0,0 -5.661039,2.43482 -5.661039,2.43482 v 0 c -19.732434,26.31532 -9.569899,12.65737 -30.465471,40.9903 -5.329581,7.48502 -10.798053,14.87306 -15.988747,22.45505 -4.21047,6.1502 -8.351559,12.35524 -12.208834,18.73289 -4.715479,7.79661 -9.707231,17.07682 -11.038375,26.32091 0,0 9.982199,-5.08619 9.982199,-5.08619 z" />
      <path
         style="fill:#000000;fill-opacity:1;fill-rule:nonzero;stroke:none;stroke-width:0.264583"
         id="path12"
         d="m 35.067038,182.99041 c -0.479723,-3.12881 -1.155104,-7.11873 -1.204483,-10.11314 -0.208204,-12.62535 2.513412,-23.08791 8.555397,-34.31178 2.950668,-5.48129 6.67807,-10.50749 10.017106,-15.76124 4.637289,-5.65928 9.015389,-11.54126 13.911863,-16.97784 10.387542,-11.533346 21.776274,-21.928015 33.472403,-32.093738 7.939396,-6.90055 19.011536,-15.861569 27.569736,-22.413219 3.2144,-2.460754 6.51652,-4.804772 9.77478,-7.207157 2.54556,-1.616096 5.09113,-3.232192 7.63669,-4.848291 -0.84129,0.629436 -3.55717,1.697955 -2.52386,1.888305 1.44575,0.266326 2.74092,-1.063909 4.11138,-1.595861 0,0 8.13893,-6.389801 8.13893,-6.389801 v 0 c -1.49548,0.588383 -3.05726,1.030242 -4.48644,1.765149 -12.32309,6.336712 -11.79719,6.264867 -21.06353,12.437554 -3.01134,2.312974 -6.06159,4.576162 -9.03402,6.938923 -7.9532,6.321917 -18.74847,15.352627 -26.11905,21.873088 -11.501049,10.174512 -23.147668,20.858673 -33.507,32.208958 -5.080384,5.56637 -9.680461,11.55282 -14.520693,17.32922 -7.966284,12.08587 -12.549216,17.25502 -17.269267,30.5689 -2.181503,6.15338 -3.153707,14.54617 -3.458997,21.13236 -0.01244,0.26828 0.132178,8.95621 0.160318,10.67822 0,0 9.838737,-5.10861 9.838737,-5.10861 z" />
      <path
         style="fill:#000000;fill-opacity:1;fill-rule:nonzero;stroke:none;stroke-width:0.264583"
         id="path14"
         d="m 31.661232,193.74688 c 3.072212,-0.11767 8.351623,-0.25465 10.95426,-0.76346 13.46063,-2.6315 27.612099,-8.91496 39.415752,-15.68926 7.100628,-4.07517 13.900882,-8.6527 20.851326,-12.97904 4.2262,-3.62747 8.76781,-6.91693 12.67862,-10.8824 8.10482,-8.2181 13.41874,-16.191 18.41589,-26.55534 4.69308,-9.73372 7.5412,-19.39722 10.1876,-29.820658 1.16105,-4.573082 2.03487,-9.214326 3.0523,-13.821489 2.80594,-15.230988 1.57101,-7.978929 3.76071,-21.746586 0,0 -8.2992,4.085934 -8.2992,4.085934 v 0 c -1.57533,13.452761 -0.62032,6.354532 -2.9547,21.282438 -0.9342,4.547317 -1.69625,9.133424 -2.8026,13.641951 -2.53483,10.32968 -5.45739,19.98533 -10.14423,29.58602 -4.97095,10.18268 -10.38651,18.20828 -18.40601,26.26002 -3.91204,3.92778 -8.44941,7.17869 -12.674115,10.76803 -2.517711,1.76258 -4.885211,3.76203 -7.553129,5.28773 -11.140265,6.37076 -24.761722,12.56144 -37.560826,14.71155 -3.193915,0.53655 -6.729479,0.28014 -9.983745,0.1408 0,0 -8.937903,6.49376 -8.937903,6.49376 z" />
      <path
         style="fill:#000000;fill-opacity:1;fill-rule:nonzero;stroke:none;stroke-width:0.264583;image-rendering:crisp-edges"
         id="path18"
         d="m 46.036026,173.7386 c 3.57015,7.02596 6.742173,14.24526 9.977852,21.42818 0,0 8.058325,-4.53238 8.058325,-4.53238 v 0 c -3.066317,-7.27352 -6.318647,-14.52574 -8.26806,-22.20509 0,0 -9.768117,5.30929 -9.768117,5.30929 z" />
    </g>
  </g>
</svg>
